<svg width="28" height="28" viewBox="0 0 28 28" fill="none" xmlns="http://www.w3.org/2000/svg">
<circle cx="14" cy="14" r="14" fill="white" fill-opacity="0.16"/>
<path d="M14.3836 22.9584C14.2419 22.9584 14.1002 22.9584 13.9586 22.9501C9.29195 22.7418 5.39195 18.9834 5.06695 14.4001C4.78361 10.4668 7.05862 6.79176 10.7253 5.25009C11.7669 4.81676 12.3169 5.15009 12.5502 5.39176C12.7836 5.62509 13.1086 6.16676 12.6752 7.15843C12.2919 8.04176 12.1003 8.98343 12.1086 9.95009C12.1253 13.6418 15.1919 16.7751 18.9336 16.9251C19.4752 16.9501 20.0086 16.9084 20.5252 16.8168C21.6252 16.6168 22.0836 17.0584 22.2586 17.3418C22.4336 17.6251 22.6336 18.2334 21.9669 19.1334C20.2002 21.5501 17.3919 22.9584 14.3836 22.9584ZM6.30862 14.3084C6.59195 18.2751 9.97528 21.5251 14.0086 21.7001C16.7502 21.8334 19.3502 20.5834 20.9502 18.4001C21.0752 18.2251 21.1336 18.1001 21.1586 18.0334C21.0836 18.0251 20.9502 18.0168 20.7419 18.0584C20.1336 18.1668 19.5002 18.2084 18.8752 18.1834C14.4752 18.0084 10.8753 14.3168 10.8503 9.96676C10.8503 8.81676 11.0753 7.70843 11.5336 6.66676C11.6169 6.48343 11.6336 6.35843 11.6419 6.29176C11.5669 6.29176 11.4336 6.30843 11.2169 6.40009C8.04195 7.73343 6.07528 10.9168 6.30862 14.3084Z" fill="white"/>
<path d="M6.30862 14.3084C6.59195 18.2751 9.97528 21.5251 14.0086 21.7001C16.7502 21.8334 19.3502 20.5834 20.9502 18.4001C21.0752 18.2251 21.1336 18.1001 21.1586 18.0334C21.0836 18.0251 20.9502 18.0168 20.7419 18.0584C20.1336 18.1668 19.5002 18.2084 18.8752 18.1834C14.4752 18.0084 10.8753 14.3168 10.8503 9.96676C10.8503 8.81676 11.0753 7.70843 11.5336 6.66676C11.6169 6.48343 11.6336 6.35843 11.6419 6.29176C11.5669 6.29176 11.4336 6.30843 11.2169 6.40009C8.04195 7.73343 6.07528 10.9168 6.30862 14.3084Z" fill="white"/>
</svg>
