<svg width="28" height="28" viewBox="0 0 28 28" fill="none" xmlns="http://www.w3.org/2000/svg">
<circle cx="14" cy="14" r="14" fill="white" fill-opacity="0.16"/>
<path d="M14.3837 22.9584C14.242 22.9584 14.1004 22.9584 13.9587 22.9501C9.29207 22.7418 5.39207 18.9834 5.06707 14.4001C4.78374 10.4668 7.05874 6.79176 10.7254 5.25009C11.7671 4.81676 12.3171 5.15009 12.5504 5.39176C12.7837 5.62509 13.1087 6.16676 12.6754 7.15843C12.2921 8.04176 12.1004 8.98343 12.1087 9.95009C12.1254 13.6418 15.192 16.7751 18.9337 16.9251C19.4754 16.9501 20.0087 16.9084 20.5254 16.8168C21.6254 16.6168 22.0837 17.0584 22.2587 17.3418C22.4337 17.6251 22.6337 18.2334 21.967 19.1334C20.2004 21.5501 17.392 22.9584 14.3837 22.9584ZM6.30874 14.3084C6.59207 18.2751 9.9754 21.5251 14.0087 21.7001C16.7504 21.8334 19.3504 20.5834 20.9504 18.4001C21.0754 18.2251 21.1337 18.1001 21.1587 18.0334C21.0837 18.0251 20.9504 18.0168 20.742 18.0584C20.1337 18.1668 19.5004 18.2084 18.8754 18.1834C14.4754 18.0084 10.8754 14.3168 10.8504 9.96676C10.8504 8.81676 11.0754 7.70843 11.5337 6.66676C11.6171 6.48343 11.6337 6.35843 11.6421 6.29176C11.5671 6.29176 11.4337 6.30843 11.2171 6.40009C8.04207 7.73343 6.0754 10.9168 6.30874 14.3084Z" fill="white"/>
<path d="M6.30874 14.3084C6.59207 18.2751 9.9754 21.5251 14.0087 21.7001C16.7504 21.8334 19.3504 20.5834 20.9504 18.4001C21.0754 18.2251 21.1337 18.1001 21.1587 18.0334C21.0837 18.0251 20.9504 18.0168 20.742 18.0584C20.1337 18.1668 19.5004 18.2084 18.8754 18.1834C14.4754 18.0084 10.8754 14.3168 10.8504 9.96676C10.8504 8.81676 11.0754 7.70843 11.5337 6.66676C11.6171 6.48343 11.6337 6.35843 11.6421 6.29176C11.5671 6.29176 11.4337 6.30843 11.2171 6.40009C8.04207 7.73343 6.0754 10.9168 6.30874 14.3084Z" fill="white"/>
</svg>
