<svg width="24" height="24" viewBox="0 0 24 24" fill="none" xmlns="http://www.w3.org/2000/svg">
<circle opacity="0.64" cx="12" cy="12" r="10" fill="white"/>
<path fill-rule="evenodd" clip-rule="evenodd" d="M9.38737 7.14194C9.38737 7.76449 8.91336 8.2683 8.17208 8.2683C7.45968 8.2683 6.98566 7.76449 7.00033 7.14194C6.98566 6.48914 7.45967 6 8.18628 6C8.91335 6 9.37316 6.48914 9.38737 7.14194ZM7.05993 16.4095V9.15811H9.31356V16.4091H7.05993V16.4095Z" fill="black"/>
<path fill-rule="evenodd" clip-rule="evenodd" d="M11.1197 11.4723C11.1197 10.5678 11.0899 9.79675 11.0601 9.15908H13.0175L13.1216 10.1525H13.1661C13.4627 9.69269 14.204 8.99634 15.4051 8.99634C16.8876 8.99634 17.9998 9.97508 17.9998 12.1095V16.4105H15.7461V12.3919C15.7461 11.4572 15.4202 10.82 14.6046 10.82C13.9816 10.82 13.6112 11.25 13.4631 11.6648C13.4036 11.8134 13.3742 12.0206 13.3742 12.2287V16.4105H11.1206V11.4723H11.1197Z" fill="black"/>
</svg>
